{
  "accessors": [
    {
      "bufferView": 2,
      "componentType": 5126,
      "count": 65532,
      "max": [
        0.39505425095558167,
        0.65067380666732788,
        0.38654875755310059
      ],
      "min": [
        -0.37545052170753479,
        -1.0217618942260742,
        -0.14150071144104004
      ],
      "type": "VEC3"
    },
    {
      "bufferView": 2,
      "byteOffset": 786384,
      "componentType": 5126,
      "count": 65532,
      "max": [
        0.99998313188552856,
        0.99999845027923584,
        0.99996662139892578
      ],
      "min": [
        -0.9999774694442749,
        -0.99999749660491943,
        -0.99996727705001831
      ],
      "type": "VEC3"
    },
    {
      "bufferView": 3,
      "componentType": 5126,
      "count": 65532,
      "max": [
        0.99972105026245117,
        0.99999731779098511,
        0.99981731176376343,
        1
      ],
      "min": [
        -0.99999034404754639,
        -0.99999278783798218,
        -0.99999368190765381,
        -1
      ],
      "type": "VEC4"
    },
    {
      "bufferView": 1,
      "componentType": 5126,
      "count": 65532,
      "max": [
        0.9955984354019165,
        0.99570989608764648
      ],
      "min": [
        0.004290133249014616,
        0.0054497718811035156
      ],
      "type": "VEC2"
    },
    {
      "bufferView": 0,
      "componentType": 5125,
      "count": 333681,
      "max": [
        65531
      ],
      "min": [
        0
      ],
      "type": "SCALAR"
    },
    {
      "bufferView": 2,
      "byteOffset": 1572768,
      "componentType": 5126,
      "count": 59937,
      "max": [
        0.39521768689155579,
        0.66246110200881958,
        0.35466563701629639
      ],
      "min": [
        -0.37704974412918091,
        -1.0217618942260742,
        -0.29289650917053223
      ],
      "type": "VEC3"
    },
    {
      "bufferView": 2,
      "byteOffset": 2292012,
      "componentType": 5126,
      "count": 59937,
      "max": [
        0.99999529123306274,
        0.99990135431289673,
        0.99999374151229858
      ],
      "min": [
        -0.99998682737350464,
        -0.99998170137405396,
        -0.99999803304672241
      ],
      "type": "VEC3"
    },
    {
      "bufferView": 3,
      "byteOffset": 1048512,
      "componentType": 5126,
      "count": 59937,
      "max": [
        0.99994838237762451,
        0.99998581409454346,
        0.99999517202377319,
        1
      ],
      "min": [
        -0.9999006986618042,
        -0.99997973442077637,
        -0.99997639656066895,
        -1
      ],
      "type": "VEC4"
    },
    {
      "bufferView": 1,
      "byteOffset": 524256,
      "componentType": 5126,
      "count": 59937,
      "max": [
        0.99570989608764648,
        0.99570989608764648
      ],
      "min": [
        0.004290133249014616,
        0.0049278140068054199
      ],
      "type": "VEC2"
    },
    {
      "bufferView": 0,
      "byteOffset": 1334724,
      "componentType": 5125,
      "count": 267435,
      "max": [
        59936
      ],
      "min": [
        0
      ],
      "type": "SCALAR"
    }
  ],
  "asset": {
    "extras": {
      "author": "CODAME (https://sketchfab.com/codame)",
      "license": "CC-BY-4.0 (http://creativecommons.org/licenses/by/4.0/)",
      "source": "https://sketchfab.com/models/55e0194bf96546cba173f655904aac39",
      "title": "Storm Trooper"
    },
    "generator": "Sketchfab-3.18.5",
    "version": "2.0"
  },
  "bufferViews": [
    {
      "buffer": 0,
      "byteLength": 2404464,
      "byteOffset": 0,
      "name": "floatBufferViews",
      "target": 34963
    },
    {
      "buffer": 0,
      "byteLength": 1003752,
      "byteOffset": 2404464,
      "byteStride": 8,
      "name": "floatBufferViews",
      "target": 34962
    },
    {
      "buffer": 0,
      "byteLength": 3011256,
      "byteOffset": 3408216,
      "byteStride": 12,
      "name": "floatBufferViews",
      "target": 34962
    },
    {
      "buffer": 0,
      "byteLength": 2007504,
      "byteOffset": 6419472,
      "byteStride": 16,
      "name": "floatBufferViews",
      "target": 34962
    }
  ],
  "buffers": [
    {
      "byteLength": 8426976,
      "uri": "scene.bin"
    }
  ],
  "images": [
    {
      "uri": "textures/material_0_baseColor.jpeg"
    }
  ],
  "materials": [
    {
      "doubleSided": true,
      "emissiveFactor": [
        0,
        0,
        0
      ],
      "name": "material_0",
      "pbrMetallicRoughness": {
        "baseColorFactor": [
          1,
          1,
          1,
          1
        ],
        "baseColorTexture": {
          "index": 0,
          "texCoord": 0
        },
        "metallicFactor": 0,
        "roughnessFactor": 0.59999999999999998
      }
    }
  ],
  "meshes": [
    {
      "primitives": [
        {
          "attributes": {
            "NORMAL": 1,
            "POSITION": 0,
            "TANGENT": 2,
            "TEXCOORD_0": 3
          },
          "indices": 4,
          "material": 0,
          "mode": 4
        }
      ]
    },
    {
      "primitives": [
        {
          "attributes": {
            "NORMAL": 6,
            "POSITION": 5,
            "TANGENT": 7,
            "TEXCOORD_0": 8
          },
          "indices": 9,
          "material": 0,
          "mode": 4
        }
      ]
    }
  ],
  "nodes": [
    {
      "children": [
        1
      ],
      "name": "RootNode (gltf orientation matrix)",
      "rotation": [
        -0.70710678118654746,
        -0,
        -0,
        0.70710678118654757
      ]
    },
    {
      "children": [
        2
      ],
      "matrix": [
        1,
        0,
        0,
        0,
        0,
        -0.00061309000011533499,
        0.99999982118606567,
        0,
        0,
        -0.99999982118606567,
        -0.00061309000011533499,
        0,
        0,
        -0.13293248414993286,
        0.22650152444839478,
        1
      ],
      "name": "RootNode (model correction matrix)"
    },
    {
      "children": [
        3,
        4
      ],
      "name": "Geode"
    },
    {
      "mesh": 0,
      "name": ""
    },
    {
      "mesh": 1,
      "name": ""
    }
  ],
  "samplers": [
    {
      "magFilter": 9729,
      "minFilter": 9987,
      "wrapS": 33071,
      "wrapT": 33071
    }
  ],
  "scene": 0,
  "scenes": [
    {
      "name": "OSG_Scene",
      "nodes": [
        0
      ]
    }
  ],
  "textures": [
    {
      "sampler": 0,
      "source": 0
    }
  ]
}

